<svg width="853" height="852" viewBox="0 0 853 852" fill="none" xmlns="http://www.w3.org/2000/svg">
<path d="M465.031 469.73C465.031 461.345 462.069 454.281 456.145 448.539C450.311 442.797 440.422 437.602 426.477 432.953C407.062 427.029 392.889 419.327 383.957 409.848C375.116 400.277 370.695 388.155 370.695 373.48C370.695 358.533 375.025 346.273 383.684 336.703C392.434 327.133 404.419 321.436 419.641 319.613V289.672H440.012V319.75C455.324 321.846 467.219 328.272 475.695 339.027C484.263 349.783 488.547 364.503 488.547 383.188H463.391C463.391 370.336 460.337 360.128 454.23 352.562C448.124 344.997 439.875 341.215 429.484 341.215C418.638 341.215 410.344 344.04 404.602 349.691C398.859 355.251 395.988 363.044 395.988 373.07C395.988 382.367 398.996 389.796 405.012 395.355C411.118 400.824 421.099 405.837 434.953 410.395C448.898 414.861 459.745 419.828 467.492 425.297C475.331 430.674 481.073 436.964 484.719 444.164C488.456 451.365 490.324 459.796 490.324 469.457C490.324 484.861 485.676 497.257 476.379 506.645C467.173 516.033 454.23 521.592 437.551 523.324V549.438H417.316V523.324C400.363 521.775 387.056 515.759 377.395 505.277C367.824 494.704 363.039 480.395 363.039 462.348H388.332C388.332 475.017 391.659 484.77 398.312 491.605C404.966 498.441 414.4 501.859 426.613 501.859C438.553 501.859 447.941 498.988 454.777 493.246C461.613 487.504 465.031 479.665 465.031 469.73Z" fill="white"/>
<path d="M221.725 719.578L249.974 736.859L268.16 707.13L277.037 712.56L235.857 779.878L194.153 754.367L198.622 747.062L231.449 767.142L245.533 744.118L217.284 726.837L221.725 719.578Z" fill="white"/>
<path d="M209.583 676.133L182.121 650.747L187.897 644.499L223.04 676.985L169.473 734.933L161.792 727.832L209.583 676.133Z" fill="white"/>
<path d="M136.293 609.533L155.262 636.611L176.391 630.876L182.548 639.665L100.626 660.263L95.4016 652.805L142.712 582.801L148.838 591.546L136.293 609.533ZM146.445 638.95L131.052 616.977L108.534 649.164L146.445 638.95Z" fill="white"/>
<path d="M95.7901 561.974C96.7973 571.205 96.3523 578.415 94.4551 583.604C92.5107 588.773 88.9971 592.397 83.9144 594.478C78.1629 596.833 72.4768 596.486 66.8561 593.438C61.1883 590.371 56.8485 585.159 53.8367 577.802C51.7832 572.786 50.9254 567.925 51.2631 563.219C51.5872 558.479 53.0165 554.341 55.5511 550.804C58.0721 547.235 61.3556 544.621 65.4017 542.965L69.3649 552.645C64.951 554.453 62.065 557.274 60.7071 561.109C59.3156 564.959 59.6672 569.442 61.7618 574.558C63.7057 579.306 66.2786 582.587 69.4805 584.399C72.6352 586.192 76.0684 586.329 79.7802 584.809C82.7562 583.591 84.7675 581.303 85.814 577.947C86.8133 574.57 86.9268 569.507 86.1543 562.756C85.3681 555.972 85.3134 550.45 85.9903 546.19C86.62 541.911 87.9705 538.391 90.0417 535.63C92.0992 532.835 94.9838 530.678 98.6955 529.159C104.614 526.736 110.307 527.099 115.774 530.249C121.208 533.412 125.506 538.856 128.669 546.58C130.722 551.596 131.686 556.668 131.559 561.795C131.399 566.936 130.134 571.379 127.762 575.122C125.376 578.831 122.06 581.556 117.813 583.294L113.85 573.614C118.264 571.807 121.094 568.754 122.341 564.456C123.541 560.139 123.025 555.255 120.794 549.804C118.713 544.722 116.081 541.25 112.899 539.391C109.717 537.531 106.337 537.333 102.759 538.798C99.1811 540.263 96.9357 542.646 96.023 545.948C95.0769 549.264 94.9992 554.606 95.7901 561.974Z" fill="white"/>
<path d="M103.335 446.379L104.956 456.713L68.9208 462.366L75.0863 501.668L111.122 496.015L112.734 506.295L34.7738 518.526L33.161 508.245L66.6798 502.987L60.5143 463.685L26.9956 468.943L25.3744 458.609L103.335 446.379Z" fill="white"/>
<path d="M74.3021 363.724C70.2142 372.062 65.9808 377.916 61.602 381.284C57.1938 384.611 52.2861 385.794 46.8787 384.832C40.7598 383.745 36.1413 380.41 33.0233 374.827C29.8761 369.203 28.9981 362.478 30.3895 354.652C31.3381 349.315 33.2141 344.75 36.0174 340.954C38.827 337.123 42.2485 334.392 46.2819 332.76C50.3216 331.093 54.4938 330.642 58.7984 331.407L56.9675 341.706C52.2716 340.871 48.3239 341.711 45.1246 344.225C41.8896 346.732 39.7884 350.708 38.8208 356.151C37.9227 361.202 38.3413 365.35 40.0766 368.595C41.7827 371.797 44.6101 373.75 48.5589 374.451C51.7251 375.014 54.6482 374.158 57.3282 371.882C59.9789 369.564 62.7837 365.347 65.7428 359.23C68.7081 353.078 71.6161 348.384 74.4669 345.147C77.2883 341.869 80.3126 339.617 83.5396 338.392C86.773 337.132 90.3641 336.853 94.3129 337.555C100.61 338.675 105.225 342.027 108.159 347.613C111.057 353.193 111.776 360.092 110.315 368.31C109.366 373.646 107.467 378.446 104.617 382.71C101.731 386.968 98.2854 390.044 94.2789 391.938C90.2787 393.795 86.0195 394.323 81.5015 393.52L83.3324 383.221C88.0283 384.055 92.0526 382.991 95.4053 380.027C98.7288 377.021 100.906 372.619 101.937 366.82C102.898 361.413 102.532 357.072 100.839 353.799C99.1453 350.525 96.3953 348.55 92.5888 347.873C88.7823 347.196 85.6102 348.009 83.0725 350.31C80.4992 352.605 77.5758 357.076 74.3021 363.724Z" fill="white"/>
<path d="M116.659 277.6L103.831 308.072L119.933 322.907L115.769 332.797L54.729 274.405L58.2619 266.013L142.707 268.807L138.564 278.648L116.659 277.6ZM97.1585 301.852L107.568 277.125L68.3344 275.193L97.1585 301.852Z" fill="white"/>
<path d="M149.717 243.953L171.203 213.343L178.168 218.232L150.673 257.403L86.082 212.066L92.0917 203.504L149.717 243.953Z" fill="white"/>
<path d="M195.487 150.079L170.666 173.607L189.906 193.904L218.739 166.573L224.593 172.749L188.208 207.239L133.919 149.966L169.911 115.849L175.802 122.064L147.362 149.022L164.813 167.431L189.633 143.904L195.487 150.079Z" fill="white"/>
<path d="M263.287 121.923L255.371 126.312L227.29 77.12L236.486 72.0212L263.287 121.923ZM262.781 141.911C261.992 140.489 261.762 139.067 262.09 137.646C262.431 136.176 263.455 134.968 265.162 134.021C266.868 133.075 268.435 132.847 269.863 133.336C271.274 133.793 272.373 134.733 273.162 136.155C273.95 137.577 274.165 139.007 273.806 140.446C273.429 141.853 272.387 143.029 270.681 143.976C268.975 144.922 267.425 145.182 266.032 144.756C264.653 144.281 263.569 143.333 262.781 141.911Z" fill="white"/>
<path d="M294.936 106.906L286.616 110.47L263.666 58.6847L273.332 54.5445L294.936 106.906ZM292.406 126.74C291.766 125.245 291.681 123.807 292.151 122.427C292.64 120.999 293.781 119.901 295.574 119.132C297.368 118.364 298.95 118.296 300.321 118.927C301.678 119.525 302.677 120.571 303.317 122.066C303.957 123.56 304.026 125.005 303.523 126.4C303.005 127.762 301.85 128.826 300.056 129.595C298.263 130.363 296.695 130.465 295.352 129.9C294.028 129.288 293.046 128.234 292.406 126.74Z" fill="white"/>
<path d="M327.945 95.1751L319.306 97.8773L301.725 44.0324L311.76 40.8933L327.945 95.1751ZM323.417 114.65C322.932 113.098 322.993 111.66 323.6 110.334C324.231 108.963 325.478 107.986 327.34 107.403C329.202 106.821 330.783 106.913 332.083 107.68C333.373 108.413 334.26 109.555 334.745 111.107C335.231 112.659 335.153 114.103 334.511 115.439C333.858 116.741 332.6 117.684 330.738 118.266C328.876 118.849 327.306 118.791 326.027 118.093C324.773 117.35 323.902 116.202 323.417 114.65Z" fill="white"/>
<path d="M361.973 86.8512L353.105 88.6638L341.073 33.3139L351.375 31.2083L361.973 86.8512ZM355.494 105.767C355.169 104.174 355.375 102.749 356.114 101.491C356.881 100.191 358.22 99.346 360.132 98.9553C362.044 98.5646 363.607 98.8166 364.823 99.7115C366.031 100.571 366.798 101.797 367.124 103.39C367.449 104.983 367.225 106.412 366.451 107.677C365.669 108.906 364.323 109.716 362.411 110.107C360.5 110.497 358.943 110.281 357.742 109.457C356.569 108.59 355.82 107.36 355.494 105.767Z" fill="white"/>
<path d="M396.669 82.02L387.663 82.9242L381.305 26.6397L391.767 25.5893L396.669 82.02ZM388.307 100.182C388.144 98.5638 388.494 97.1668 389.357 95.9908C390.251 94.7752 391.669 94.07 393.611 93.8751C395.552 93.6802 397.082 94.0895 398.201 95.1029C399.316 96.0804 399.954 97.3781 400.117 98.9959C400.279 100.614 399.911 102.012 399.013 103.192C398.111 104.336 396.689 105.005 394.748 105.2C392.806 105.395 391.28 105.022 390.169 104.08C389.09 103.099 388.469 101.799 388.307 100.182Z" fill="white"/>
<path d="M501.509 75.3569L468.762 70.4297L463.577 104.892L453.286 103.344L465.028 25.3079L513.371 32.5818L512.097 41.05L474.044 35.3244L470.028 62.0151L502.775 66.9424L501.509 75.3569Z" fill="white"/>
<path d="M529.599 110.654L564.774 123.353L561.885 131.357L516.871 115.105L543.669 40.8806L553.507 44.4328L529.599 110.654Z" fill="white"/>
<path d="M623.027 143.488L595.016 125.925L577.785 139.43L568.693 133.729L636.144 82.8782L643.859 87.7152L627.515 170.611L618.469 164.939L623.027 143.488ZM602.229 120.339L624.959 134.591L633.178 96.1796L602.229 120.339Z" fill="white"/>
<path d="M678.844 171.54C674.324 163.428 671.929 156.613 671.657 151.095C671.437 145.577 673.264 140.87 677.136 136.976C681.518 132.569 686.891 130.676 693.255 131.296C699.669 131.917 705.695 135.029 711.332 140.634C715.176 144.456 717.857 148.6 719.377 153.067C720.923 157.559 721.217 161.928 720.258 166.172C719.325 170.441 717.317 174.126 714.234 177.226L706.816 169.851C710.179 166.469 711.74 162.747 711.498 158.685C711.282 154.598 709.214 150.605 705.294 146.707C701.656 143.089 698.009 141.068 694.354 140.644C690.751 140.22 687.535 141.43 684.707 144.274C682.439 146.555 681.477 149.445 681.819 152.944C682.212 156.443 684.078 161.152 687.416 167.07C690.78 173.013 692.979 178.079 694.013 182.266C695.098 186.453 695.223 190.221 694.39 193.571C693.582 196.946 691.764 200.055 688.936 202.899C684.426 207.434 679.041 209.315 672.779 208.541C666.542 207.741 660.465 204.398 654.546 198.513C650.703 194.691 647.842 190.394 645.963 185.622C644.11 180.824 643.547 176.239 644.276 171.868C645.03 167.522 647.025 163.723 650.26 160.469L657.678 167.844C654.315 171.226 652.895 175.139 653.419 179.584C653.994 184.028 656.369 188.326 660.546 192.479C664.44 196.351 668.215 198.525 671.87 199C675.525 199.475 678.716 198.342 681.442 195.6C684.168 192.859 685.309 189.79 684.865 186.393C684.446 182.97 682.439 178.019 678.844 171.54Z" fill="white"/>
<path d="M716.871 280.96L711.357 272.071L742.353 252.842L721.381 219.037L690.385 238.266L684.899 229.423L751.957 187.822L757.443 196.665L728.612 214.551L749.584 248.357L778.415 230.47L783.929 239.359L716.871 280.96Z" fill="white"/>
<path d="M775.778 345.805C776.3 336.533 777.922 329.494 780.645 324.687C783.411 319.907 787.472 316.908 792.827 315.69C798.887 314.311 804.439 315.586 809.484 319.515C814.571 323.471 817.997 329.325 819.76 337.076C820.963 342.361 821.011 347.297 819.906 351.884C818.808 356.506 816.719 360.354 813.638 363.426C810.566 366.534 806.898 368.573 802.635 369.543L800.314 359.343C804.965 358.285 808.275 355.976 810.244 352.415C812.248 348.846 812.637 344.366 811.41 338.976C810.272 333.973 808.272 330.315 805.411 328.001C802.594 325.715 799.229 325.016 795.319 325.906C792.183 326.62 789.823 328.546 788.24 331.686C786.7 334.852 785.758 339.829 785.412 346.615C785.074 353.436 784.222 358.892 782.855 362.982C781.531 367.1 779.621 370.351 777.125 372.735C774.637 375.154 771.438 376.808 767.527 377.698C761.291 379.117 755.734 377.824 750.858 373.82C746.017 369.808 742.671 363.732 740.819 355.593C739.617 350.309 739.499 345.148 740.465 340.11C741.466 335.065 743.444 330.891 746.398 327.588C749.36 324.32 753.078 322.177 757.553 321.159L759.873 331.359C755.223 332.417 751.93 334.963 749.995 338.998C748.102 343.06 747.81 347.963 749.116 353.706C750.335 359.061 752.361 362.917 755.195 365.274C758.029 367.631 761.33 368.38 765.1 367.522C768.87 366.665 771.476 364.682 772.918 361.575C774.396 358.459 775.349 353.203 775.778 345.805Z" fill="white"/>
<path d="M770.27 441.623L770.23 408.561L749.625 401.161L749.612 390.43L828.562 420.469L828.573 429.575L749.696 459.859L749.683 449.181L770.27 441.623ZM778.797 411.695L778.829 438.523L815.723 425.038L778.797 411.695Z" fill="white"/>
<path d="M752.909 485.482L745.027 522.039L736.709 520.246L746.795 473.463L823.937 490.095L821.732 500.321L752.909 485.482Z" fill="white"/>
<path d="M747.273 589.767L760.983 558.436L735.362 547.224L719.436 583.62L711.64 580.209L731.738 534.28L804.034 565.915L784.153 611.348L776.308 607.915L792.017 572.015L768.779 561.847L755.069 593.178L747.273 589.767Z" fill="white"/>
<path d="M695.771 642.086L701.356 634.962L746.364 669.351L739.877 677.626L695.771 642.086ZM688.46 623.476C689.74 624.479 690.505 625.699 690.756 627.135C691.014 628.623 690.541 630.134 689.337 631.67C688.133 633.205 686.778 634.026 685.273 634.131C683.795 634.258 682.417 633.82 681.137 632.817C679.857 631.814 679.103 630.58 678.874 629.115C678.674 627.672 679.175 626.183 680.379 624.648C681.583 623.112 682.909 622.269 684.358 622.12C685.813 622.021 687.18 622.473 688.46 623.476Z" fill="white"/>
<path d="M672.459 668.234L678.736 661.713L720.027 700.488L712.735 708.063L672.459 668.234ZM667.072 648.979C668.243 650.106 668.881 651.398 668.985 652.852C669.091 654.358 668.467 655.814 667.113 657.219C665.76 658.625 664.329 659.304 662.821 659.256C661.338 659.233 660.011 658.657 658.84 657.53C657.668 656.402 657.043 655.098 656.964 653.617C656.911 652.161 657.561 650.731 658.914 649.325C660.267 647.92 661.672 647.216 663.129 647.214C664.586 647.263 665.901 647.851 667.072 648.979Z" fill="white"/>
<path d="M646.616 691.884L653.523 686.034L690.67 728.794L682.647 735.591L646.616 691.884ZM643.209 672.182C644.26 673.423 644.764 674.772 644.72 676.23C644.672 677.738 643.904 679.123 642.415 680.384C640.926 681.645 639.434 682.176 637.938 681.975C636.465 681.802 635.203 681.095 634.152 679.854C633.101 678.614 632.612 677.253 632.683 675.772C632.778 674.318 633.569 672.961 635.058 671.7C636.547 670.438 638.016 669.881 639.465 670.026C640.91 670.223 642.158 670.941 643.209 672.182Z" fill="white"/>
<path d="M618.509 712.792L625.973 707.672L658.594 753.978L649.923 759.926L618.509 712.792ZM617.117 692.846C618.037 694.187 618.401 695.58 618.21 697.026C618.009 698.522 617.104 699.822 615.495 700.926C613.886 702.029 612.348 702.406 610.88 702.054C609.432 701.733 608.249 700.902 607.329 699.561C606.409 698.22 606.06 696.816 606.281 695.35C606.522 693.914 607.448 692.644 609.057 691.54C610.666 690.436 612.184 690.03 613.611 690.322C615.028 690.664 616.197 691.505 617.117 692.846Z" fill="white"/>
<path d="M588.427 730.743L596.371 726.406L624.129 775.781L614.9 780.819L588.427 730.743ZM589.064 710.759C589.843 712.186 590.064 713.609 589.727 715.028C589.376 716.496 588.344 717.697 586.631 718.632C584.919 719.567 583.35 719.786 581.925 719.287C580.518 718.821 579.425 717.874 578.646 716.447C577.867 715.02 577.661 713.588 578.03 712.152C578.416 710.747 579.465 709.577 581.178 708.642C582.89 707.707 584.441 707.457 585.832 707.892C587.207 708.376 588.285 709.332 589.064 710.759Z" fill="white"/>
<path d="M487.781 765.525L496.693 763.944L507.283 819.588L496.93 821.425L487.781 765.525ZM494.749 746.784C495.033 748.385 494.789 749.805 494.018 751.042C493.218 752.322 491.857 753.132 489.936 753.473C488.015 753.814 486.458 753.522 485.266 752.596C484.081 751.705 483.346 750.459 483.062 748.858C482.778 747.257 483.039 745.835 483.846 744.591C484.659 743.382 486.026 742.607 487.947 742.267C489.868 741.926 491.418 742.183 492.598 743.038C493.748 743.934 494.465 745.183 494.749 746.784Z" fill="white"/>
<path d="M452.97 769.453L461.997 768.783L466.891 825.214L456.405 825.992L452.97 769.453ZM461.802 751.515C461.923 753.136 461.537 754.524 460.644 755.677C459.718 756.869 458.282 757.537 456.336 757.681C454.39 757.826 452.871 757.377 451.78 756.335C450.69 755.329 450.086 754.015 449.965 752.393C449.845 750.772 450.249 749.383 451.178 748.227C452.109 747.107 453.548 746.475 455.494 746.331C457.44 746.186 458.956 746.599 460.042 747.569C461.095 748.578 461.682 749.893 461.802 751.515Z" fill="white"/>
<path d="M417.941 769.833L426.989 770.081L426.137 826.717L415.627 826.429L417.941 769.833ZM428.546 752.882C428.502 754.508 427.977 755.849 426.972 756.905C425.93 757.997 424.433 758.516 422.483 758.463C420.532 758.409 419.067 757.809 418.086 756.661C417.105 755.55 416.636 754.181 416.681 752.556C416.726 750.931 417.269 749.59 418.31 748.534C419.35 747.515 420.845 747.032 422.796 747.085C424.746 747.139 426.213 747.703 427.195 748.779C428.141 749.889 428.591 751.257 428.546 752.882Z" fill="white"/>
<path d="M383.055 766.658L392.031 767.823L385.442 824.081L375.014 822.728L383.055 766.658ZM395.323 750.87C395.114 752.483 394.456 753.764 393.349 754.713C392.202 755.694 390.66 756.059 388.726 755.808C386.791 755.557 385.393 754.81 384.534 753.569C383.67 752.364 383.343 750.956 383.552 749.343C383.762 747.731 384.438 746.452 385.58 745.507C386.719 744.598 388.255 744.269 390.19 744.52C392.125 744.771 393.527 745.482 394.395 746.651C395.223 747.851 395.533 749.258 395.323 750.87Z" fill="white"/>
<path d="M348.669 759.964L357.481 762.032L345.222 817.333L334.986 814.929L348.669 759.964ZM362.475 745.501C362.104 747.084 361.319 748.291 360.122 749.124C358.881 749.983 357.31 750.19 355.411 749.744C353.511 749.298 352.197 748.414 351.468 747.092C350.731 745.806 350.548 744.371 350.92 742.788C351.291 741.205 352.094 740.002 353.326 739.178C354.551 738.389 356.113 738.217 358.012 738.663C359.912 739.109 361.234 739.958 361.98 741.209C362.682 742.487 362.847 743.918 362.475 745.501Z" fill="white"/>
</svg>
